<svg xmlns="http://www.w3.org/2000/svg" xmlns:xlink="http://www.w3.org/1999/xlink"><symbol id="icon-arrow" viewBox="0 0 39 68"><path fill-rule="evenodd" d="M1.498 58.415l24.539-24.891L1.482 8.616c-1.937-1.965-1.937-5.15 0-7.114a4.908 4.908 0 017.013 0s18.232 18.477 28.069 28.457c1.937 1.964 1.937 5.149 0 7.114L8.511 65.53a4.91 4.91 0 01-7.013 0 5.082 5.082 0 010-7.115z"/></symbol><symbol id="icon-bage" viewBox="0 0 335 163"><path fill-rule="evenodd" d="M165.812 0c10.29-.095 11.468 8.364 19.392 10.926 8.027 2.594 15.388-3.116 21.54-.676 5.885 2.335 5.63 7.416 7.916 13.381 1.144 2.986 3.233 5.676 5.523 7.55 4.69 3.838 14.448 3.919 17.674 9.207 4.005 6.566-2.385 14.635-.184 22.404 2.194 7.746 10.281 10.008 11.23 17.554 1.037 8.252-8.681 12.122-10.985 18.905-2.562 7.544 3.576 15.318.491 22.22-2.854 6.385-13.05 6.139-18.164 10.25-2.559 2.057-4.514 4.935-5.769 8.286-1.49 3.977-1.743 8.602-4.725 11.049-6.358 5.217-13.858-1.36-22.338.43-9.265 1.955-10.753 10.545-19.637 11.478-6.888.722-11.77-9.182-18.839-11.233-7.851-2.278-15.811 4.03-22.461.184-5.325-3.08-5.264-12.596-8.959-17.309-1.91-2.436-4.491-4.494-7.548-5.77-5.957-2.486-11.344-2.048-13.746-8.102-2.591-6.529 3.679-14.001.736-21.79C94.657 92.85 85.1 88.135 86.036 80.53c.942-7.655 8.83-9.753 11.046-17.554 2.268-7.986-3.901-15.885-.061-22.527 3.017-5.22 12.433-5.22 17.121-8.777 2.407-1.826 4.568-4.288 5.83-7.243 2.267-5.309 2.02-10.759 6.811-13.503 6.235-3.572 13.085 2.061 20.497.613 7.051-1.377 9.219-5.735 13.807-9.268L165.812 0zm.062 18.782c-6.132 1.33-11.977 1.331-17.306 2.946-18.932 5.739-33.039 19.809-39.765 37.81-14.885 39.836 12.34 74.624 43.018 82.556 5.06 1.309 11.509 2.612 18.164 1.965 28.197-2.743 46.152-16.557 55.23-38.24 18.661-44.572-15.94-87.019-59.341-87.037zm.429 10.496c35.587-.484 63.95 34.597 49.646 71.324-7.328 18.815-22.574 30.287-46.148 33.022-6.434.747-12.601-.849-17.244-2.271-23.044-7.056-46.31-34.537-34.365-66.659 5.974-16.065 17.116-27.824 33.997-32.961 4.367-1.328 9.079-1.233 14.114-2.455zm26.633 26.025c-8.879 2.361-17.111 13.556-23.135 19.58l-12.703 12.583-.184-.061-7.609-7.611c-4.093-3.5-8.07-11.108-16.508-8.164-2.504.874-4.449 2.432-5.707 4.542-1.396 2.344-1.776 6.543-.552 9.392 2.006 4.67 6.859 7.693 10.125 11.232 4.466 4.839 9.395 10.741 14.851 14.486l4.357 1.534c6.841.966 10.556-5.034 13.746-8.225l22.829-22.833c3.393-3.394 7.804-6.603 10.309-10.803 4.499-7.544-2.029-15.737-9.819-15.652zM31.788 71.201l7.548 23.201h24.301L44 108.581l7.487 23.202-19.699-14.302-19.637 14.302 7.486-23.202L0 94.341h24.363l7.425-23.14zm271.301 0l7.548 23.201L335 94.341l-19.699 14.24 7.548 23.202-19.821-14.302-19.576 14.302L291 108.581l-19.698-14.24 24.423-.123 7.364-23.017z"/></symbol><symbol id="icon-btn" viewBox="0 0 70 40"><path fill-rule="evenodd" d="M0 40V0h19c9.654 38.329 51 40 51 40H0z"/></symbol><symbol id="icon-catalog" viewBox="0 0 83 83"><path fill-rule="evenodd" d="M39.646 40.975c1.171.536 2.342.536 3.516 0l37.241-17.012c1.279-.642 1.918-1.71 1.918-3.21 0-1.497-.639-2.567-1.918-3.209L43.162.532a4.704 4.704 0 00-1.758-.321 4.69 4.69 0 00-1.758.321L2.404 17.544c-1.279.642-1.918 1.712-1.918 3.209 0 1.5.639 2.568 1.918 3.21l37.242 17.012zm31.487-7.062L45.24 45.629c-1.279.536-2.558.802-3.836.802-1.279 0-2.558-.266-3.836-.802L11.834 33.913l-9.43 4.173c-1.279.642-1.918 1.74-1.918 3.29 0 1.552.639 2.595 1.918 3.129l37.242 17.012c1.171.537 2.342.537 3.516 0l37.241-17.012c1.279-.534 1.918-1.577 1.918-3.129 0-1.55-.639-2.648-1.918-3.29l-9.27-4.173zm0 20.542L45.24 66.171c-1.279.537-2.558.802-3.836.802-1.279 0-2.558-.265-3.836-.802L11.674 54.455l-9.27 4.173c-1.279.642-1.918 1.713-1.918 3.21 0 1.499.639 2.568 1.918 3.21l37.242 17.011c1.171.534 2.342.534 3.516 0l37.241-17.011c1.279-.642 1.918-1.711 1.918-3.21 0-1.497-.639-2.568-1.918-3.21l-9.27-4.173z"/></symbol><symbol id="icon-close" viewBox="0 0 34 33"><path fill-rule="evenodd" d="M29.594 32.653L17 20.059 4.406 32.653.847 29.094 13.441 16.5.847 3.906 4.406.347 17 12.941 29.594.347l3.559 3.559L20.559 16.5l12.594 12.594-3.559 3.559z"/></symbol><symbol id="icon-fire" viewBox="0 0 75 83"><path fill-rule="evenodd" d="M13.275 22.273C4.534 38.901-15.6 66.452 21.93 82.987c-5.81-5.93-3.527-15.776-.671-20.441 4.507-7.362 7.878-12.613 8.529-18.457 2.151 1.333 3.441 8.092 2.506 11.888 6.936-9.104 8.54-17.017 7.289-21.7 3.965 2.384 24.363 24.659 9.566 48.479 35.89-13.387 30.538-51.953 7.517-67.87 2.501 5.822 4.194 13.321 1.252 18.353C55.403 25.314 43.301 2.924 29.333-.004c9.3 18.48-8.856 35.505-14.805 40.399-1.652-3.133-1.983-11.178-1.253-18.122z"/></symbol><symbol id="icon-home" viewBox="0 0 46 38"><path fill-rule="evenodd" d="M5.503 22.861c0 .05-.054.1-.16.148a.64.64 0 01-.24.074v13.736c0 .346.12.631.36.854.239.222.545.334.918.334h10.222c.372 0 .679-.112.919-.334.239-.223.359-.508.359-.854v-9.504c0-.345.12-.631.359-.853.24-.223.546-.334.919-.334h7.667c.371 0 .678.111.918.334.24.222.359.508.359.853v9.504c0 .346.12.631.36.854.239.222.545.334.918.334h10.222c.372 0 .679-.112.919-.334.239-.223.359-.508.359-.854V23.083a.4.4 0 01-.2-.074 1.156 1.156 0 01-.199-.148l-17.49-14.33-17.489 14.33zM25.148.736a3.428 3.428 0 00-2.156-.743c-.798 0-1.517.248-2.156.743L.392 17.515a1.17 1.17 0 00-.4.891c0 .297.106.57.32.817l1.757 1.782c.212.248.505.371.878.371.372 0 .665-.099.879-.297L22.114 6.081a1.445 1.445 0 011.757 0l18.288 14.998c.212.198.505.297.878.297.372 0 .692-.123.959-.371l1.677-1.782c.212-.247.319-.52.319-.817 0-.346-.133-.643-.399-.891L25.148.736z"/></symbol><symbol id="icon-line" viewBox="0 0 2228 8"><path fill-rule="evenodd" d="M0 8h2228V0H0v8z"/></symbol><symbol id="icon-list" viewBox="0 0 50 29"><path fill-rule="evenodd" d="M47.5 17h-45a2.5 2.5 0 010-5h45a2.5 2.5 0 110 5zm0-12h-45a2.5 2.5 0 010-5h45a2.5 2.5 0 110 5zm-45 19h45a2.5 2.5 0 110 5h-45a2.5 2.5 0 110-5z"/></symbol><symbol id="icon-mail" viewBox="0 0 44 34"><path fill-rule="evenodd" d="M29.512 21.124c-.169.169-.48.423-.93.761l-1.183.887c-.338.254-.761.55-1.268.888a9.423 9.423 0 01-1.437.803c-.451.198-.929.367-1.436.507a5.66 5.66 0 01-1.522.211 6.245 6.245 0 01-1.732-.254 7.744 7.744 0 01-1.817-.802 47.805 47.805 0 01-1.522-.93 22.211 22.211 0 01-1.563-1.141c-.648-.507-1.029-.816-1.141-.93-6.818-4.957-11.156-8.141-13.015-9.55a.548.548 0 00-.55-.042c-.198.084-.296.24-.296.465v17.241c0 1.128.394 2.085 1.184 2.873.788.79 1.745 1.184 2.873 1.184h35.159c1.126 0 2.083-.394 2.873-1.184.788-.788 1.183-1.745 1.183-2.873V11.997a.55.55 0 00-.296-.507c-.198-.113-.38-.085-.549.084-2.028 1.578-6.368 4.762-13.015 9.55zm-6.128.888a14.787 14.787 0 001.564-.845c.393-.254.972-.677 1.733-1.268.76-.592 1.168-.888 1.225-.888 7.042-5.126 11.944-8.76 14.706-10.902.507-.394.76-.93.76-1.606V4.897c0-1.126-.395-2.083-1.183-2.873-.79-.789-1.747-1.183-2.873-1.183H4.157c-1.128 0-2.085.394-2.873 1.183C.494 2.814.1 3.771.1 4.897v1.606c0 .676.254 1.212.761 1.606 2.929 2.254 7.831 5.888 14.706 10.902.055 0 .465.296 1.225.888.761.591 1.338 1.014 1.733 1.268.393.253.915.536 1.563.845.647.31 1.197.465 1.648.465.451 0 1-.155 1.648-.465z"/></symbol><symbol id="icon-phone" viewBox="0 0 77 77"><path fill-rule="evenodd" d="M58.51.181c-1.907-.5-3.261.151-4.062 1.955l-7.221 16.84c-.703 1.706-.352 3.108 1.053 4.21l9.026 7.518c-2.708 5.814-6.344 11.028-10.906 15.637a52.879 52.879 0 01-15.721 10.976l-7.371-9.021c-1.203-1.403-2.609-1.753-4.212-1.053L2.248 54.46c-1.907.804-2.607 2.157-2.106 4.06l3.61 15.637c.4 1.903 1.554 2.857 3.46 2.857 19.255 0 35.702-6.818 49.342-20.449C70.192 42.934 77.013 26.494 77.013 7.248c0-1.903-.954-3.056-2.858-3.458L58.51.181z"/></symbol><symbol id="icon-sample" viewBox="0 0 569 482"><path fill-rule="evenodd" d="M452 270c-64.617 0-117-52.383-117-117 0-17.403 3.805-33.916 10.62-48.76C334.455 122.165 328 143.327 328 166c0 64.617 52.383 117 117 117 11.895 0 23.372-1.781 34.187-5.08C461.419 393.494 361.546 482 241 482 107.899 482 0 374.101 0 241S107.899 0 241 0c56.961 0 109.297 19.771 150.545 52.812C409.189 42.143 429.877 36 452 36c64.617 0 117 52.383 117 117 0 64.617-52.383 117-117 117z"/></symbol><symbol id="icon-shop" viewBox="0 0 48 40"><path fill-rule="evenodd" d="M41.773 1.499C41.31.728 40.617.343 39.692.343H8.552c-.925 0-1.619.385-2.082 1.156L1.46 9.515c-1.335 2.056-1.515 4.24-.539 6.552.975 2.313 2.671 3.623 5.087 3.931a7.02 7.02 0 001.002.077c2.312 0 4.213-.848 5.704-2.543 1.541 1.695 3.442 2.543 5.704 2.543 2.26 0 4.162-.848 5.704-2.543 1.541 1.695 3.442 2.543 5.703 2.543s4.163-.848 5.704-2.543c1.49 1.695 3.365 2.543 5.627 2.543a7.54 7.54 0 001.079-.077c2.415-.308 4.111-1.618 5.087-3.931.976-2.312.797-4.496-.539-6.552l-5.01-8.016zm-2.852 20.735v7.707H9.322v-7.707c-.874.205-1.645.308-2.312.308-.463 0-.925-.025-1.387-.077a7.064 7.064 0 01-1.234-.309v15.185c0 .463.116.873.347 1.233.231.359.526.656.887.887.358.231.77.347 1.233.347h34.531c.668 0 1.246-.245 1.735-.733.487-.489.732-1.067.732-1.734V22.156a7.1 7.1 0 01-1.233.309c-.463.052-.925.077-1.388.077a9.57 9.57 0 01-2.312-.308z"/></symbol><symbol id="icon-star" viewBox="0 0 87 83"><path fill-rule="evenodd" d="M28.627 24.058L5.291 27.589c-2.132.216-3.516 1.339-4.155 3.37-.64 2.034-.215 3.799 1.278 5.296l16.943 16.53-3.996 23.431c-.32 2.031.372 3.691 2.078 4.975 1.703 1.284 3.461 1.39 5.274.321l20.939-10.913L64.59 81.512c1.811.963 3.569.828 5.275-.401 1.703-1.231 2.397-2.864 2.078-4.895l-3.996-23.431 16.942-16.53c1.491-1.497 1.918-3.262 1.279-5.296-.639-2.031-2.026-3.154-4.156-3.37l-23.336-3.531L48.287 2.874C47.328.948 45.782-.015 43.652-.015c-2.133 0-3.676.963-4.635 2.889l-10.39 21.184z"/></symbol><symbol id="icon-tag" viewBox="0 0 60 60"><path d="M30.36 0h-.99l-1.34.55c-1.47 1-1.53 1.84-3.09 2.75a7.27 7.27 0 01-6.3.56c-2.59-.81-4.43.1-5.24 2-.62 1.48-.36 3.33-2.56 5.32-3 2.73-6.17 1.1-7.17 4.61a5.76 5.76 0 00.4 3.41A7.33 7.33 0 013 25.36c-1 1.32-3.21 2.34-3 4.87.32 3.54 5.89 3.94 3.91 10.92a4.45 4.45 0 00-.13 3.31c1.45 3.39 4.36 1.39 7.35 4.54s1.05 6 4.56 7.21c2.5.88 5.45-2.26 9.6.65 1.34.94 2.36 3.15 4.79 3.07s3.21-2.17 4.72-3.16a7.16 7.16 0 016.24-.81 4.75 4.75 0 003.32.23c3.36-1.19 1.63-4.35 4.58-7.31a7.66 7.66 0 012.33-1.56c1-.39 2.17-.46 3.07-.91a3.73 3.73 0 001.87-2c1-2.67-2.19-5.51.61-9.64 1-1.44 3.1-2.39 3.16-4.71.06-2.5-2.09-3.38-3.07-4.79-2.89-4.14.18-7-.62-9.52s-3.18-2.52-4.79-3.09a7.24 7.24 0 01-4.06-3.83c-.7-1.65-.43-4-2.87-5a4.24 4.24 0 00-3.37.09 7.22 7.22 0 01-6.28-.69 8.87 8.87 0 01-2-1.88C31.83.13 31.04.3 30.35-.02zm-2 10.89a19.18 19.18 0 1013.61 34.12 20.5 20.5 0 002.47-2.35 19.25 19.25 0 004.71-14.34 19.24 19.24 0 00-20.79-17.43zm.11-3.88a23.28 23.28 0 00-9 2.49 23.63 23.63 0 00-7.83 6.62 21.74 21.74 0 00-3.08 5.51 22.37 22.37 0 00-1.52 10c.74 7.18 3.62 12.54 9.1 16.82a23.17 23.17 0 0024.48 2.1 23.49 23.49 0 007.83-6.6 19.7 19.7 0 001.17-1.7 23 23 0 003.43-13.79c-.7-7.18-3.3-11.7-8.31-16.18l-2.49-1.8a21.64 21.64 0 00-3.82-1.92 22.51 22.51 0 00-9.95-1.51z" fill-rule="evenodd"/></symbol><symbol id="icon-tel" viewBox="0 0 47 41"><path fill-rule="evenodd" d="M31.421 12.625c-.971-.559-1.898-.839-2.781-.839H18.221c-.59 0-1.208.132-1.855.397a7.497 7.497 0 00-1.766 1.016c-.53.412-.942.883-1.236 1.412l-9.36 16.336a2.621 2.621 0 00-.353 1.324v4.945c0 .764.279 1.427.839 1.987.559.559 1.221.839 1.987.839h33.907c.764 0 1.426-.28 1.986-.839.559-.56.839-1.223.839-1.987v-4.945c0-.47-.118-.912-.353-1.324l-9.36-16.336c-.412-.764-1.103-1.426-2.075-1.986zM17.073 25.207c0-1.766.618-3.267 1.854-4.503 1.236-1.236 2.737-1.854 4.503-1.854s3.267.618 4.503 1.854c1.237 1.236 1.855 2.737 1.855 4.503s-.618 3.267-1.855 4.504c-1.236 1.236-2.737 1.854-4.503 1.854s-3.267-.618-4.503-1.854c-1.236-1.237-1.854-2.738-1.854-4.504zM23.43.484c-8.3 0-15.659 2.679-22.075 8.035a1.425 1.425 0 00-.529 1.148v4.944c0 .413.132.751.397 1.016s.603.397 1.015.397h6.181c.588 0 1.001-.265 1.236-.794l2.473-6.27c3.237-1.413 7.005-2.119 11.302-2.119s8.064.706 11.303 2.119l2.472 6.27c.234.529.647.794 1.236.794h6.181c.411 0 .751-.132 1.016-.397.264-.265.397-.603.397-1.016V9.667c0-.471-.177-.853-.53-1.148C39.088 3.163 31.73.484 23.43.484z"/></symbol> <view id="icon-arrow-view-red" viewBox="0 0 39 68"/><view id="icon-arrow-view-orange" viewBox="0 78 39 68"/><view id="icon-arrow-view-dark" viewBox="0 156 39 68"/><view id="icon-arrow-view-white" viewBox="0 234 39 68"/><view id="icon-bage-view-red" viewBox="0 312 335 163"/><view id="icon-bage-view-orange" viewBox="0 485 335 163"/><view id="icon-bage-view-dark" viewBox="0 658 335 163"/><view id="icon-bage-view-white" viewBox="0 831 335 163"/><view id="icon-btn-view-red" viewBox="0 1004 70 40"/><view id="icon-btn-view-orange" viewBox="0 1054 70 40"/><view id="icon-btn-view-dark" viewBox="0 1104 70 40"/><view id="icon-btn-view-white" viewBox="0 1154 70 40"/><view id="icon-catalog-view-red" viewBox="0 1204 83 83"/><view id="icon-catalog-view-orange" viewBox="0 1297 83 83"/><view id="icon-catalog-view-dark" viewBox="0 1390 83 83"/><view id="icon-catalog-view-white" viewBox="0 1483 83 83"/><view id="icon-close-view-red" viewBox="0 1576 34 33"/><view id="icon-close-view-orange" viewBox="0 1619 34 33"/><view id="icon-close-view-dark" viewBox="0 1662 34 33"/><view id="icon-close-view-white" viewBox="0 1705 34 33"/><view id="icon-fire-view-red" viewBox="0 1748 75 83"/><view id="icon-fire-view-orange" viewBox="0 1841 75 83"/><view id="icon-fire-view-dark" viewBox="0 1934 75 83"/><view id="icon-fire-view-white" viewBox="0 2027 75 83"/><view id="icon-home-view-red" viewBox="0 2120 46 38"/><view id="icon-home-view-orange" viewBox="0 2168 46 38"/><view id="icon-home-view-dark" viewBox="0 2216 46 38"/><view id="icon-home-view-white" viewBox="0 2264 46 38"/><view id="icon-line-view-red" viewBox="0 2312 2228 8"/><view id="icon-line-view-orange" viewBox="0 2330 2228 8"/><view id="icon-line-view-dark" viewBox="0 2348 2228 8"/><view id="icon-line-view-white" viewBox="0 2366 2228 8"/><view id="icon-list-view-red" viewBox="0 2384 50 29"/><view id="icon-list-view-orange" viewBox="0 2423 50 29"/><view id="icon-list-view-dark" viewBox="0 2462 50 29"/><view id="icon-list-view-white" viewBox="0 2501 50 29"/><view id="icon-mail-view-red" viewBox="0 2540 44 34"/><view id="icon-mail-view-orange" viewBox="0 2584 44 34"/><view id="icon-mail-view-dark" viewBox="0 2628 44 34"/><view id="icon-mail-view-white" viewBox="0 2672 44 34"/><view id="icon-phone-view-red" viewBox="0 2716 77 77"/><view id="icon-phone-view-orange" viewBox="0 2803 77 77"/><view id="icon-phone-view-dark" viewBox="0 2890 77 77"/><view id="icon-phone-view-white" viewBox="0 2977 77 77"/><view id="icon-sample-view-red" viewBox="0 3064 569 482"/><view id="icon-sample-view-orange" viewBox="0 3556 569 482"/><view id="icon-sample-view-dark" viewBox="0 4048 569 482"/><view id="icon-sample-view-white" viewBox="0 4540 569 482"/><view id="icon-shop-view-red" viewBox="0 5032 48 40"/><view id="icon-shop-view-orange" viewBox="0 5082 48 40"/><view id="icon-shop-view-dark" viewBox="0 5132 48 40"/><view id="icon-shop-view-white" viewBox="0 5182 48 40"/><view id="icon-star-view-red" viewBox="0 5232 87 83"/><view id="icon-star-view-orange" viewBox="0 5325 87 83"/><view id="icon-star-view-dark" viewBox="0 5418 87 83"/><view id="icon-star-view-white" viewBox="0 5511 87 83"/><view id="icon-tag-view-red" viewBox="0 5604 60 60"/><view id="icon-tag-view-orange" viewBox="0 5674 60 60"/><view id="icon-tag-view-dark" viewBox="0 5744 60 60"/><view id="icon-tag-view-white" viewBox="0 5814 60 60"/><view id="icon-tel-view-red" viewBox="0 5884 47 41"/><view id="icon-tel-view-orange" viewBox="0 5935 47 41"/><view id="icon-tel-view-dark" viewBox="0 5986 47 41"/><view id="icon-tel-view-white" viewBox="0 6037 47 41"/> <use xlink:href="#icon-arrow" x="0" y="0" width="39" height="68" style="fill:#eb4163"/><use xlink:href="#icon-arrow" x="0" y="78" width="39" height="68" style="fill:#faaf37"/><use xlink:href="#icon-arrow" x="0" y="156" width="39" height="68" style="fill:#777777"/><use xlink:href="#icon-arrow" x="0" y="234" width="39" height="68" style="fill:#ffffff"/><use xlink:href="#icon-bage" x="0" y="312" width="335" height="163" style="fill:#eb4163"/><use xlink:href="#icon-bage" x="0" y="485" width="335" height="163" style="fill:#faaf37"/><use xlink:href="#icon-bage" x="0" y="658" width="335" height="163" style="fill:#777777"/><use xlink:href="#icon-bage" x="0" y="831" width="335" height="163" style="fill:#ffffff"/><use xlink:href="#icon-btn" x="0" y="1004" width="70" height="40" style="fill:#eb4163"/><use xlink:href="#icon-btn" x="0" y="1054" width="70" height="40" style="fill:#faaf37"/><use xlink:href="#icon-btn" x="0" y="1104" width="70" height="40" style="fill:#777777"/><use xlink:href="#icon-btn" x="0" y="1154" width="70" height="40" style="fill:#ffffff"/><use xlink:href="#icon-catalog" x="0" y="1204" width="83" height="83" style="fill:#eb4163"/><use xlink:href="#icon-catalog" x="0" y="1297" width="83" height="83" style="fill:#faaf37"/><use xlink:href="#icon-catalog" x="0" y="1390" width="83" height="83" style="fill:#777777"/><use xlink:href="#icon-catalog" x="0" y="1483" width="83" height="83" style="fill:#ffffff"/><use xlink:href="#icon-close" x="0" y="1576" width="34" height="33" style="fill:#eb4163"/><use xlink:href="#icon-close" x="0" y="1619" width="34" height="33" style="fill:#faaf37"/><use xlink:href="#icon-close" x="0" y="1662" width="34" height="33" style="fill:#777777"/><use xlink:href="#icon-close" x="0" y="1705" width="34" height="33" style="fill:#ffffff"/><use xlink:href="#icon-fire" x="0" y="1748" width="75" height="83" style="fill:#eb4163"/><use xlink:href="#icon-fire" x="0" y="1841" width="75" height="83" style="fill:#faaf37"/><use xlink:href="#icon-fire" x="0" y="1934" width="75" height="83" style="fill:#777777"/><use xlink:href="#icon-fire" x="0" y="2027" width="75" height="83" style="fill:#ffffff"/><use xlink:href="#icon-home" x="0" y="2120" width="46" height="38" style="fill:#eb4163"/><use xlink:href="#icon-home" x="0" y="2168" width="46" height="38" style="fill:#faaf37"/><use xlink:href="#icon-home" x="0" y="2216" width="46" height="38" style="fill:#777777"/><use xlink:href="#icon-home" x="0" y="2264" width="46" height="38" style="fill:#ffffff"/><use xlink:href="#icon-line" x="0" y="2312" width="2228" height="8" style="fill:#eb4163"/><use xlink:href="#icon-line" x="0" y="2330" width="2228" height="8" style="fill:#faaf37"/><use xlink:href="#icon-line" x="0" y="2348" width="2228" height="8" style="fill:#777777"/><use xlink:href="#icon-line" x="0" y="2366" width="2228" height="8" style="fill:#ffffff"/><use xlink:href="#icon-list" x="0" y="2384" width="50" height="29" style="fill:#eb4163"/><use xlink:href="#icon-list" x="0" y="2423" width="50" height="29" style="fill:#faaf37"/><use xlink:href="#icon-list" x="0" y="2462" width="50" height="29" style="fill:#777777"/><use xlink:href="#icon-list" x="0" y="2501" width="50" height="29" style="fill:#ffffff"/><use xlink:href="#icon-mail" x="0" y="2540" width="44" height="34" style="fill:#eb4163"/><use xlink:href="#icon-mail" x="0" y="2584" width="44" height="34" style="fill:#faaf37"/><use xlink:href="#icon-mail" x="0" y="2628" width="44" height="34" style="fill:#777777"/><use xlink:href="#icon-mail" x="0" y="2672" width="44" height="34" style="fill:#ffffff"/><use xlink:href="#icon-phone" x="0" y="2716" width="77" height="77" style="fill:#eb4163"/><use xlink:href="#icon-phone" x="0" y="2803" width="77" height="77" style="fill:#faaf37"/><use xlink:href="#icon-phone" x="0" y="2890" width="77" height="77" style="fill:#777777"/><use xlink:href="#icon-phone" x="0" y="2977" width="77" height="77" style="fill:#ffffff"/><use xlink:href="#icon-sample" x="0" y="3064" width="569" height="482" style="fill:#eb4163"/><use xlink:href="#icon-sample" x="0" y="3556" width="569" height="482" style="fill:#faaf37"/><use xlink:href="#icon-sample" x="0" y="4048" width="569" height="482" style="fill:#777777"/><use xlink:href="#icon-sample" x="0" y="4540" width="569" height="482" style="fill:#ffffff"/><use xlink:href="#icon-shop" x="0" y="5032" width="48" height="40" style="fill:#eb4163"/><use xlink:href="#icon-shop" x="0" y="5082" width="48" height="40" style="fill:#faaf37"/><use xlink:href="#icon-shop" x="0" y="5132" width="48" height="40" style="fill:#777777"/><use xlink:href="#icon-shop" x="0" y="5182" width="48" height="40" style="fill:#ffffff"/><use xlink:href="#icon-star" x="0" y="5232" width="87" height="83" style="fill:#eb4163"/><use xlink:href="#icon-star" x="0" y="5325" width="87" height="83" style="fill:#faaf37"/><use xlink:href="#icon-star" x="0" y="5418" width="87" height="83" style="fill:#777777"/><use xlink:href="#icon-star" x="0" y="5511" width="87" height="83" style="fill:#ffffff"/><use xlink:href="#icon-tag" x="0" y="5604" width="60" height="60" style="fill:#eb4163"/><use xlink:href="#icon-tag" x="0" y="5674" width="60" height="60" style="fill:#faaf37"/><use xlink:href="#icon-tag" x="0" y="5744" width="60" height="60" style="fill:#777777"/><use xlink:href="#icon-tag" x="0" y="5814" width="60" height="60" style="fill:#ffffff"/><use xlink:href="#icon-tel" x="0" y="5884" width="47" height="41" style="fill:#eb4163"/><use xlink:href="#icon-tel" x="0" y="5935" width="47" height="41" style="fill:#faaf37"/><use xlink:href="#icon-tel" x="0" y="5986" width="47" height="41" style="fill:#777777"/><use xlink:href="#icon-tel" x="0" y="6037" width="47" height="41" style="fill:#ffffff"/></svg>