<svg xmlns="http://www.w3.org/2000/svg" xmlns:xlink="http://www.w3.org/1999/xlink"><symbol id="icon-arrow" viewBox="0 0 39 68"><path fill-rule="evenodd" d="M1.498 58.415l24.539-24.891L1.482 8.616c-1.937-1.965-1.937-5.15 0-7.114a4.908 4.908 0 017.013 0s18.232 18.477 28.069 28.457c1.937 1.964 1.937 5.149 0 7.114L8.511 65.53a4.91 4.91 0 01-7.013 0 5.082 5.082 0 010-7.115z"/></symbol><symbol id="icon-bage" viewBox="0 0 335 163"><path fill-rule="evenodd" d="M165.812 0c10.29-.095 11.468 8.364 19.392 10.926 8.027 2.594 15.388-3.116 21.54-.676 5.885 2.335 5.63 7.416 7.916 13.381 1.144 2.986 3.233 5.676 5.523 7.55 4.69 3.838 14.448 3.919 17.674 9.207 4.005 6.566-2.385 14.635-.184 22.404 2.194 7.746 10.281 10.008 11.23 17.554 1.037 8.252-8.681 12.122-10.985 18.905-2.562 7.544 3.576 15.318.491 22.22-2.854 6.385-13.05 6.139-18.164 10.25-2.559 2.057-4.514 4.935-5.769 8.286-1.49 3.977-1.743 8.602-4.725 11.049-6.358 5.217-13.858-1.36-22.338.43-9.265 1.955-10.753 10.545-19.637 11.478-6.888.722-11.77-9.182-18.839-11.233-7.851-2.278-15.811 4.03-22.461.184-5.325-3.08-5.264-12.596-8.959-17.309-1.91-2.436-4.491-4.494-7.548-5.77-5.957-2.486-11.344-2.048-13.746-8.102-2.591-6.529 3.679-14.001.736-21.79C94.657 92.85 85.1 88.135 86.036 80.53c.942-7.655 8.83-9.753 11.046-17.554 2.268-7.986-3.901-15.885-.061-22.527 3.017-5.22 12.433-5.22 17.121-8.777 2.407-1.826 4.568-4.288 5.83-7.243 2.267-5.309 2.02-10.759 6.811-13.503 6.235-3.572 13.085 2.061 20.497.613 7.051-1.377 9.219-5.735 13.807-9.268L165.812 0zm.062 18.782c-6.132 1.33-11.977 1.331-17.306 2.946-18.932 5.739-33.039 19.809-39.765 37.81-14.885 39.836 12.34 74.624 43.018 82.556 5.06 1.309 11.509 2.612 18.164 1.965 28.197-2.743 46.152-16.557 55.23-38.24 18.661-44.572-15.94-87.019-59.341-87.037zm.429 10.496c35.587-.484 63.95 34.597 49.646 71.324-7.328 18.815-22.574 30.287-46.148 33.022-6.434.747-12.601-.849-17.244-2.271-23.044-7.056-46.31-34.537-34.365-66.659 5.974-16.065 17.116-27.824 33.997-32.961 4.367-1.328 9.079-1.233 14.114-2.455zm26.633 26.025c-8.879 2.361-17.111 13.556-23.135 19.58l-12.703 12.583-.184-.061-7.609-7.611c-4.093-3.5-8.07-11.108-16.508-8.164-2.504.874-4.449 2.432-5.707 4.542-1.396 2.344-1.776 6.543-.552 9.392 2.006 4.67 6.859 7.693 10.125 11.232 4.466 4.839 9.395 10.741 14.851 14.486l4.357 1.534c6.841.966 10.556-5.034 13.746-8.225l22.829-22.833c3.393-3.394 7.804-6.603 10.309-10.803 4.499-7.544-2.029-15.737-9.819-15.652zM31.788 71.201l7.548 23.201h24.301L44 108.581l7.487 23.202-19.699-14.302-19.637 14.302 7.486-23.202L0 94.341h24.363l7.425-23.14zm271.301 0l7.548 23.201L335 94.341l-19.699 14.24 7.548 23.202-19.821-14.302-19.576 14.302L291 108.581l-19.698-14.24 24.423-.123 7.364-23.017z"/></symbol><symbol id="icon-btn" viewBox="0 0 68 40"><path fill-rule="evenodd" d="M0 40V0h32c2.751 12.048 12.619 27.54 25.631 32H68v8H0z"/></symbol><symbol id="icon-list" viewBox="0 0 50 29"><path fill-rule="evenodd" d="M47.5 17h-45a2.5 2.5 0 010-5h45a2.5 2.5 0 110 5zm0-12h-45a2.5 2.5 0 010-5h45a2.5 2.5 0 110 5zm-45 19h45a2.5 2.5 0 110 5h-45a2.5 2.5 0 110-5z"/></symbol><symbol id="icon-sample" viewBox="0 0 569 482"><path fill-rule="evenodd" d="M452 270c-64.617 0-117-52.383-117-117 0-17.403 3.805-33.916 10.62-48.76C334.455 122.165 328 143.327 328 166c0 64.617 52.383 117 117 117 11.895 0 23.372-1.781 34.187-5.08C461.419 393.494 361.546 482 241 482 107.899 482 0 374.101 0 241S107.899 0 241 0c56.961 0 109.297 19.771 150.545 52.812C409.189 42.143 429.877 36 452 36c64.617 0 117 52.383 117 117 0 64.617-52.383 117-117 117z"/></symbol> <view id="icon-arrow-view-red" viewBox="0 0 39 68"/><view id="icon-arrow-view-orange" viewBox="0 78 39 68"/><view id="icon-arrow-view-white" viewBox="0 156 39 68"/><view id="icon-bage-view-red" viewBox="0 234 335 163"/><view id="icon-bage-view-orange" viewBox="0 407 335 163"/><view id="icon-bage-view-white" viewBox="0 580 335 163"/><view id="icon-btn-view-red" viewBox="0 753 68 40"/><view id="icon-btn-view-orange" viewBox="0 803 68 40"/><view id="icon-btn-view-white" viewBox="0 853 68 40"/><view id="icon-list-view-red" viewBox="0 903 50 29"/><view id="icon-list-view-orange" viewBox="0 942 50 29"/><view id="icon-list-view-white" viewBox="0 981 50 29"/><view id="icon-sample-view-red" viewBox="0 1020 569 482"/><view id="icon-sample-view-orange" viewBox="0 1512 569 482"/><view id="icon-sample-view-white" viewBox="0 2004 569 482"/> <use xlink:href="#icon-arrow" x="0" y="0" width="39" height="68" style="fill:#eb4163"/><use xlink:href="#icon-arrow" x="0" y="78" width="39" height="68" style="fill:#faaf37"/><use xlink:href="#icon-arrow" x="0" y="156" width="39" height="68" style="fill:#ffffff"/><use xlink:href="#icon-bage" x="0" y="234" width="335" height="163" style="fill:#eb4163"/><use xlink:href="#icon-bage" x="0" y="407" width="335" height="163" style="fill:#faaf37"/><use xlink:href="#icon-bage" x="0" y="580" width="335" height="163" style="fill:#ffffff"/><use xlink:href="#icon-btn" x="0" y="753" width="68" height="40" style="fill:#eb4163"/><use xlink:href="#icon-btn" x="0" y="803" width="68" height="40" style="fill:#faaf37"/><use xlink:href="#icon-btn" x="0" y="853" width="68" height="40" style="fill:#ffffff"/><use xlink:href="#icon-list" x="0" y="903" width="50" height="29" style="fill:#eb4163"/><use xlink:href="#icon-list" x="0" y="942" width="50" height="29" style="fill:#faaf37"/><use xlink:href="#icon-list" x="0" y="981" width="50" height="29" style="fill:#ffffff"/><use xlink:href="#icon-sample" x="0" y="1020" width="569" height="482" style="fill:#eb4163"/><use xlink:href="#icon-sample" x="0" y="1512" width="569" height="482" style="fill:#faaf37"/><use xlink:href="#icon-sample" x="0" y="2004" width="569" height="482" style="fill:#ffffff"/></svg>