<svg xmlns="http://www.w3.org/2000/svg" xmlns:xlink="http://www.w3.org/1999/xlink" width="129px" height="134px"><path fill-rule="evenodd"  fill="rgb(67, 67, 67)" d="M127.431,61.643 C126.734,62.231 125.640,62.692 124.149,63.025 C122.658,63.359 120.846,63.515 118.713,63.493 C116.615,63.470 114.786,63.266 113.226,62.880 C111.666,62.495 110.492,62.028 109.704,61.478 C108.916,60.929 108.318,60.330 107.911,59.681 C107.503,59.032 107.289,58.440 107.268,57.906 C107.247,57.371 107.338,56.918 107.540,56.545 C108.375,54.929 110.875,54.414 115.039,55.000 L114.516,55.816 C114.427,55.805 114.299,55.796 114.131,55.791 C113.963,55.786 113.673,55.784 113.259,55.788 C112.846,55.792 112.482,55.823 112.169,55.882 C111.856,55.941 111.570,56.056 111.309,56.227 C111.048,56.398 110.919,56.618 110.920,56.886 C110.913,57.029 110.922,57.153 110.947,57.259 C110.972,57.364 111.108,57.537 111.354,57.778 C111.601,58.019 111.950,58.221 112.402,58.384 C112.854,58.548 113.569,58.700 114.548,58.842 C115.527,58.985 116.695,59.059 118.052,59.066 C120.204,59.104 121.829,58.988 122.928,58.719 C124.028,58.450 124.756,58.102 125.112,57.673 C125.469,57.245 125.459,56.736 125.082,56.148 C124.705,55.559 124.120,54.955 123.327,54.334 C122.534,53.714 121.541,53.072 120.348,52.410 L120.663,51.636 C122.396,52.473 123.874,53.365 125.095,54.311 C126.317,55.257 127.219,56.169 127.802,57.046 C128.384,57.923 128.642,58.762 128.577,59.562 C128.511,60.362 128.129,61.056 127.431,61.643 ZM124.812,49.004 C124.540,49.112 124.272,49.196 124.005,49.257 C123.740,49.317 123.439,49.401 123.103,49.507 C122.768,49.614 122.490,49.733 122.269,49.864 C122.217,49.804 122.152,49.725 122.072,49.626 C121.992,49.527 121.870,49.330 121.703,49.033 C121.537,48.736 121.407,48.443 121.315,48.154 C121.224,47.865 121.191,47.542 121.218,47.185 C121.245,46.829 121.366,46.502 121.581,46.206 C121.796,45.911 122.180,45.635 122.731,45.380 C123.283,45.125 123.978,44.933 124.817,44.805 C125.159,45.507 125.404,46.114 125.553,46.627 C125.702,47.141 125.756,47.546 125.713,47.842 C125.671,48.139 125.578,48.379 125.435,48.564 C125.291,48.749 125.084,48.896 124.812,49.004 ZM113.132,81.220 L116.371,81.343 C116.295,81.296 116.196,81.235 116.073,81.160 C115.950,81.086 115.855,81.037 115.789,81.012 L114.337,80.216 C114.069,80.078 113.607,79.801 112.953,79.387 C112.833,79.305 112.630,79.167 112.343,78.975 C112.058,78.784 111.841,78.632 111.694,78.520 C111.103,78.034 110.737,77.727 110.596,77.599 C110.308,77.359 109.996,77.034 109.657,76.623 C109.394,76.317 109.157,75.963 108.947,75.561 C108.769,75.173 108.660,74.828 108.618,74.528 L108.603,74.494 C108.615,74.461 108.613,74.440 108.596,74.434 C108.561,74.118 108.574,73.771 108.635,73.395 C108.647,73.362 108.648,73.334 108.638,73.311 C108.652,73.221 108.677,73.098 108.715,72.941 C108.753,72.784 108.862,72.521 109.043,72.152 C109.223,71.782 109.445,71.480 109.707,71.246 C109.970,71.011 110.361,70.848 110.880,70.757 C111.400,70.666 111.984,70.731 112.633,70.954 L113.029,71.101 C120.693,74.333 124.851,75.642 125.502,75.030 C125.817,75.300 126.012,75.794 126.088,76.515 C126.164,77.237 126.131,77.846 125.989,78.344 C125.834,78.875 125.525,79.249 125.064,79.466 C124.602,79.683 124.016,79.736 123.308,79.624 C122.600,79.513 121.854,79.339 121.068,79.104 C120.283,78.869 119.397,78.525 118.410,78.072 C117.423,77.619 116.527,77.200 115.721,76.815 C114.915,76.430 114.026,75.990 113.054,75.496 C112.082,75.001 111.330,74.636 110.798,74.400 C110.481,74.243 110.239,74.239 110.073,74.386 C109.908,74.534 109.843,74.752 109.879,75.040 C109.915,75.329 110.013,75.588 110.173,75.818 C110.248,75.922 110.307,75.992 110.350,76.027 C110.618,76.373 110.892,76.675 111.174,76.931 C111.742,77.484 112.489,78.057 113.416,78.648 C113.995,79.016 114.440,79.286 114.751,79.459 C115.210,79.743 115.686,80.005 116.179,80.246 L117.680,81.061 C117.763,81.092 117.897,81.161 118.083,81.268 C118.099,81.274 118.129,81.295 118.173,81.329 C118.216,81.365 118.254,81.388 118.287,81.401 C118.304,81.407 118.339,81.439 118.393,81.497 C118.442,81.515 118.472,81.536 118.483,81.559 C118.493,81.582 118.507,81.596 118.523,81.603 L118.539,81.636 L118.554,81.671 L118.579,81.680 L118.611,81.749 C118.632,81.795 118.644,81.838 118.648,81.877 C118.669,81.923 118.667,81.979 118.643,82.046 L118.589,82.196 C118.560,82.224 118.529,82.259 118.494,82.304 L118.460,82.320 C118.448,82.353 118.434,82.367 118.417,82.360 L118.316,82.408 C118.310,82.425 118.288,82.436 118.248,82.440 L118.190,82.447 L118.165,82.437 C118.143,82.448 118.123,82.450 118.107,82.444 C118.029,82.453 117.978,82.463 117.956,82.473 C117.939,82.467 117.917,82.464 117.889,82.463 C117.861,82.462 117.839,82.458 117.823,82.452 C117.601,82.446 117.445,82.436 117.357,82.421 C111.075,82.096 107.643,82.015 107.060,82.177 C107.031,82.205 106.997,82.221 106.958,82.225 C107.074,82.268 107.194,82.323 107.320,82.388 C109.508,83.430 112.010,84.504 114.829,85.609 C114.752,85.562 114.671,85.503 114.584,85.433 L122.666,88.155 C122.815,88.363 122.931,88.586 123.013,88.825 C123.191,89.367 123.259,89.838 123.217,90.240 C123.174,90.642 123.087,91.027 122.954,91.395 C122.752,92.003 122.259,92.371 121.475,92.496 C120.690,92.622 119.752,92.539 118.660,92.246 C117.569,91.954 116.355,91.559 115.019,91.062 C113.683,90.565 112.357,90.000 111.042,89.368 C109.726,88.737 108.463,88.143 107.251,87.588 C106.039,87.033 105.004,86.557 104.146,86.162 C103.288,85.767 102.639,85.554 102.201,85.523 C102.209,85.451 102.226,85.352 102.251,85.229 C102.277,85.106 102.341,84.878 102.442,84.545 C102.544,84.213 102.668,83.908 102.815,83.630 C102.962,83.353 103.174,83.066 103.449,82.770 C103.725,82.474 104.057,82.190 104.445,81.916 C104.834,81.644 105.538,81.393 106.556,81.164 C107.675,80.916 109.867,80.935 113.132,81.220 ZM105.100,100.717 C104.860,100.038 104.745,99.314 104.756,98.544 C104.768,97.774 105.021,97.185 105.517,96.777 C106.254,96.159 107.056,96.332 107.921,97.298 C108.902,98.374 109.551,99.902 109.866,101.884 C110.196,103.902 110.020,105.674 109.338,107.198 C109.202,107.581 108.990,107.929 108.702,108.242 C108.331,108.671 107.782,108.778 107.054,108.564 C106.326,108.350 105.524,107.896 104.649,107.201 C104.239,106.876 103.811,106.516 103.371,106.132 C103.356,108.049 103.071,109.849 102.457,111.506 C101.673,113.642 100.637,114.935 99.351,115.387 C98.092,115.812 96.933,115.234 95.871,113.680 C95.877,113.832 95.894,113.998 95.896,114.145 C95.907,114.728 95.865,115.355 95.771,116.025 C95.676,116.696 95.527,117.298 95.324,117.833 C95.120,118.368 94.819,118.870 94.421,119.338 C94.023,119.805 93.545,120.169 92.985,120.428 C91.451,121.137 90.087,120.123 88.895,117.384 C88.630,117.996 88.155,118.402 87.472,118.600 C88.043,120.471 87.948,121.592 87.188,121.963 C86.454,122.264 85.771,122.193 85.138,121.751 C84.505,121.309 83.901,120.482 83.327,119.269 C83.158,118.912 83.028,118.602 82.883,118.276 C82.116,119.961 81.164,121.443 79.978,122.673 C78.411,124.306 76.949,125.066 75.592,124.953 C74.176,124.818 73.316,123.688 73.011,121.566 C72.967,121.284 72.939,120.989 72.925,120.682 C72.884,119.759 72.994,118.931 73.256,118.196 C73.517,117.462 73.857,116.878 74.275,116.446 C74.692,116.013 75.164,115.660 75.689,115.386 C76.213,115.112 76.691,114.931 77.121,114.842 C77.552,114.754 77.922,114.721 78.233,114.741 C78.637,114.778 78.992,114.921 79.300,115.171 C79.607,115.421 79.831,115.786 79.972,116.265 C80.114,116.744 80.063,117.331 79.819,118.025 C79.437,119.152 78.426,119.874 76.786,120.191 C76.976,121.956 77.519,122.664 78.414,122.315 C79.391,121.930 80.569,120.531 81.946,118.119 C82.126,117.799 82.286,117.502 82.434,117.218 C82.286,116.847 82.137,116.475 82.028,116.152 C81.736,115.289 81.482,114.476 81.265,113.714 C81.049,112.953 80.880,112.502 80.759,112.362 C80.848,112.301 80.966,112.222 81.115,112.124 C81.264,112.026 81.548,111.894 81.967,111.730 C82.385,111.566 82.766,111.478 83.108,111.466 C83.450,111.455 83.802,111.571 84.163,111.816 C84.523,112.060 84.784,112.469 84.945,113.041 C85.752,115.782 86.409,117.222 86.915,117.360 C87.219,117.434 87.562,117.295 87.944,116.942 C88.206,116.194 88.234,115.300 88.027,114.259 C87.820,113.220 87.547,112.366 87.209,111.699 L86.702,110.700 C86.759,110.655 86.832,110.601 86.920,110.540 C87.009,110.480 87.191,110.381 87.467,110.243 C87.743,110.106 88.012,109.996 88.275,109.914 C88.537,109.832 88.849,109.785 89.211,109.774 C89.573,109.764 89.903,109.822 90.202,109.948 C90.500,110.075 90.804,110.312 91.114,110.657 C91.424,111.004 91.679,111.464 91.879,112.037 C92.044,112.490 92.261,113.124 92.531,113.939 C93.222,115.951 93.699,117.052 93.959,117.245 C94.259,117.440 94.547,117.051 94.826,116.080 C95.069,115.204 95.146,114.174 95.059,112.990 C95.029,112.594 94.990,112.232 94.946,111.885 C94.726,111.299 94.564,110.722 94.526,110.160 C94.518,110.047 94.534,109.951 94.532,109.842 L94.309,109.003 L94.601,108.835 C94.643,108.594 94.684,108.353 94.762,108.141 C94.973,107.575 95.264,107.059 95.635,106.593 C96.006,106.128 96.371,105.766 96.730,105.509 C97.089,105.253 97.414,105.070 97.707,104.962 C98.091,104.830 98.473,104.816 98.854,104.919 C99.234,105.022 99.584,105.264 99.904,105.645 C100.224,106.025 100.411,106.583 100.464,107.318 C100.563,108.506 99.925,109.580 98.550,110.541 C99.425,112.078 100.204,112.504 100.884,111.818 C101.625,111.066 102.146,109.304 102.448,106.533 C102.490,106.120 102.522,105.739 102.546,105.385 C102.302,105.163 102.067,104.957 101.815,104.718 C100.813,103.769 99.813,102.767 98.814,101.711 C97.815,100.656 96.871,99.670 95.982,98.755 C94.295,97.011 93.309,95.967 93.023,95.624 C91.872,94.290 91.221,93.430 91.071,93.044 C90.920,92.608 90.988,92.246 91.277,91.959 C91.673,91.529 92.253,91.225 93.017,91.047 C93.671,90.886 94.342,90.888 95.031,91.052 C95.894,91.211 96.784,91.615 97.701,92.264 C99.280,93.369 100.331,94.682 100.855,96.202 C101.036,96.763 101.149,97.358 101.195,97.987 C101.389,98.195 101.588,98.396 101.794,98.591 C103.470,100.373 104.892,101.805 106.060,102.886 C105.661,102.119 105.341,101.396 105.100,100.717 ZM79.042,117.681 C79.076,117.509 79.086,117.311 79.073,117.085 C79.059,116.860 78.968,116.652 78.801,116.461 C78.633,116.271 78.394,116.211 78.086,116.281 C77.983,116.305 77.889,116.326 77.803,116.345 C77.717,116.365 77.595,116.443 77.436,116.579 C77.277,116.715 77.148,116.886 77.049,117.091 C76.950,117.296 76.867,117.612 76.798,118.038 C76.730,118.464 76.712,118.957 76.745,119.515 C78.033,119.316 78.798,118.704 79.042,117.681 ZM99.616,107.321 C99.578,107.150 99.509,106.964 99.407,106.763 C99.305,106.563 99.140,106.410 98.910,106.304 C98.681,106.199 98.439,106.241 98.185,106.431 C98.100,106.494 98.022,106.553 97.951,106.606 C97.880,106.659 97.800,106.780 97.708,106.970 C97.617,107.160 97.567,107.369 97.558,107.597 C97.549,107.825 97.598,108.148 97.705,108.566 C97.812,108.984 97.992,109.442 98.244,109.939 C99.343,109.230 99.800,108.357 99.616,107.321 ZM99.044,94.487 L98.948,94.396 C98.871,94.323 98.800,94.250 98.735,94.176 C98.671,94.103 98.575,94.012 98.446,93.903 C98.318,93.794 98.187,93.689 98.053,93.586 C97.920,93.483 97.770,93.378 97.605,93.270 C97.439,93.163 97.274,93.061 97.110,92.966 C96.945,92.871 96.765,92.792 96.570,92.729 C96.375,92.667 96.184,92.620 95.997,92.589 C98.149,94.847 99.586,96.341 100.306,97.072 C100.101,96.147 99.680,95.285 99.044,94.487 ZM107.778,103.526 L108.817,105.022 C109.017,103.603 108.727,102.012 107.946,100.248 C107.301,98.808 106.684,98.029 106.096,97.911 C105.933,97.879 105.792,97.915 105.671,98.020 C105.322,98.348 105.409,99.095 105.933,100.262 C106.458,101.429 107.073,102.517 107.778,103.526 ZM72.553,120.406 C72.427,120.909 72.242,121.525 71.999,122.254 C71.756,122.983 71.498,123.682 71.227,124.349 C70.956,125.016 70.619,125.695 70.216,126.384 C69.814,127.073 69.395,127.664 68.961,128.158 C68.527,128.652 68.024,129.054 67.453,129.365 C66.881,129.676 66.288,129.822 65.672,129.804 C65.198,129.800 64.798,129.655 64.474,129.370 C64.150,129.086 63.918,128.687 63.781,128.174 C63.644,127.660 63.549,127.111 63.498,126.524 C63.525,125.613 63.594,124.925 63.704,124.459 C63.875,123.669 64.044,122.956 64.211,122.318 C64.377,121.680 64.645,120.723 65.013,119.446 C65.382,118.170 65.311,117.548 64.803,117.580 C64.521,117.571 64.103,117.707 63.549,117.991 C62.785,118.334 62.209,118.306 61.820,117.907 C61.431,117.508 61.229,117.033 61.213,116.480 L61.163,115.626 C61.321,115.621 61.721,115.476 62.363,115.190 C63.005,114.904 63.705,114.608 64.461,114.301 C65.216,113.994 65.978,113.735 66.746,113.526 C67.513,113.317 68.176,113.302 68.735,113.482 C69.293,113.662 69.626,114.081 69.732,114.737 C69.881,115.660 69.691,117.047 69.163,118.899 C68.399,122.362 67.935,124.613 67.770,125.652 L67.783,126.106 C67.856,127.459 68.318,127.642 69.169,126.655 C69.765,125.978 70.320,124.914 70.833,123.464 C71.346,122.014 71.710,120.734 71.925,119.622 L72.221,117.955 L72.800,117.911 C73.047,117.958 73.139,118.098 73.075,118.331 C73.076,118.349 73.020,118.574 72.910,119.005 C72.799,119.436 72.680,119.903 72.553,120.406 ZM58.118,122.311 C57.028,123.362 55.871,124.105 54.647,124.539 C53.712,129.260 53.448,131.798 53.855,132.153 C53.315,133.329 52.381,133.837 51.054,133.678 C50.496,133.605 50.101,133.203 49.869,132.471 C49.637,131.739 49.560,130.811 49.638,129.686 C49.717,128.562 49.864,127.309 50.081,125.927 C50.297,124.546 50.576,123.161 50.918,121.772 C51.147,120.843 51.357,119.948 51.558,119.067 C49.861,120.282 48.092,121.122 46.249,121.574 C44.066,122.113 42.430,121.970 41.339,121.143 C40.210,120.265 40.073,118.845 40.925,116.883 C41.035,116.620 41.165,116.354 41.315,116.087 C41.371,115.985 41.440,115.909 41.499,115.813 C39.770,116.538 38.043,116.918 36.319,116.939 C34.137,116.956 32.571,116.428 31.620,115.356 C30.684,114.292 30.678,113.002 31.603,111.486 C31.765,111.235 31.952,110.978 32.156,110.716 C30.437,111.055 28.776,111.086 27.172,110.809 C25.023,110.428 23.575,109.624 22.830,108.396 C22.097,107.179 22.320,105.909 23.498,104.586 C23.716,104.353 23.959,104.118 24.227,103.881 C24.289,103.827 24.354,103.792 24.417,103.741 C22.424,103.856 20.552,103.638 18.807,103.071 C16.666,102.381 15.342,101.396 14.833,100.115 C14.319,98.770 14.929,97.484 16.662,96.256 C16.891,96.090 17.138,95.932 17.403,95.782 C18.197,95.332 18.977,95.060 19.741,94.968 C20.506,94.876 21.172,94.923 21.741,95.108 C22.309,95.294 22.831,95.563 23.308,95.916 C23.784,96.269 24.158,96.621 24.429,96.972 C24.699,97.323 24.895,97.644 25.016,97.935 C25.165,98.318 25.198,98.705 25.115,99.095 C25.032,99.486 24.811,99.852 24.452,100.195 C24.093,100.538 23.553,100.755 22.833,100.845 C21.668,101.003 20.579,100.410 19.565,99.064 C18.095,100.027 17.714,100.837 18.423,101.492 C19.200,102.206 20.960,102.647 23.703,102.816 C24.555,102.863 25.268,102.872 25.862,102.849 C25.917,102.825 25.971,102.788 26.026,102.767 C26.643,102.526 27.213,102.410 27.737,102.417 C28.261,102.425 28.765,102.491 29.248,102.616 C29.732,102.741 30.164,102.927 30.545,103.173 C30.926,103.420 31.245,103.666 31.501,103.910 C31.757,104.155 31.956,104.385 32.099,104.601 C32.800,105.745 32.302,106.766 30.604,107.663 C30.510,107.582 30.434,107.487 30.376,107.379 C30.317,107.270 30.292,107.183 30.299,107.119 L30.273,107.027 C30.309,107.011 30.356,106.982 30.415,106.939 C30.474,106.896 30.567,106.813 30.695,106.689 C30.821,106.564 30.918,106.443 30.983,106.324 C31.049,106.204 31.071,106.060 31.052,105.891 C31.032,105.722 30.941,105.556 30.778,105.392 C30.709,105.309 30.642,105.245 30.576,105.200 C30.510,105.155 30.375,105.109 30.172,105.063 C29.969,105.016 29.748,105.018 29.509,105.070 C29.270,105.121 28.957,105.254 28.569,105.469 C28.181,105.684 27.766,105.987 27.324,106.377 C25.889,107.620 25.602,108.541 26.460,109.141 C27.353,109.725 29.120,109.915 31.758,109.711 C32.373,109.666 32.896,109.604 33.374,109.534 C33.506,109.435 33.632,109.320 33.769,109.236 C34.332,108.887 34.873,108.669 35.390,108.581 C35.906,108.493 36.414,108.466 36.912,108.501 C37.409,108.535 37.867,108.640 38.286,108.813 C38.705,108.986 39.061,109.170 39.357,109.364 C39.652,109.558 39.889,109.748 40.067,109.935 C40.959,110.932 40.650,112.027 39.138,113.219 C39.032,113.157 38.940,113.077 38.864,112.981 C38.786,112.884 38.746,112.804 38.742,112.740 L38.700,112.653 C38.733,112.631 38.774,112.594 38.825,112.541 C38.875,112.488 38.952,112.389 39.055,112.244 C39.158,112.099 39.231,111.961 39.275,111.832 C39.318,111.703 39.314,111.557 39.265,111.394 C39.216,111.232 39.097,111.085 38.908,110.953 C38.825,110.885 38.748,110.834 38.675,110.801 C38.602,110.769 38.462,110.749 38.254,110.739 C38.046,110.731 37.828,110.773 37.603,110.867 C37.376,110.961 37.092,111.149 36.748,111.431 C36.405,111.714 36.050,112.087 35.684,112.552 C34.493,114.035 34.373,114.994 35.323,115.428 C36.306,115.840 38.077,115.705 40.636,115.024 C41.433,114.814 42.105,114.606 42.654,114.399 C42.737,114.324 42.809,114.228 42.896,114.159 C43.501,113.677 44.095,113.365 44.675,113.224 C45.256,113.083 45.840,113.037 46.428,113.088 C47.016,113.138 47.516,113.242 47.927,113.399 C48.338,113.556 48.669,113.727 48.922,113.912 C49.245,114.161 49.471,114.474 49.601,114.851 C49.730,115.228 49.729,115.658 49.598,116.140 C49.467,116.623 49.117,117.092 48.547,117.549 C47.633,118.299 46.399,118.366 44.843,117.751 C44.081,119.348 44.170,120.241 45.111,120.427 C46.141,120.627 47.871,120.076 50.300,118.774 C50.896,118.451 51.393,118.156 51.827,117.880 C51.835,117.843 51.845,117.804 51.853,117.768 C52.133,116.486 52.374,115.402 52.576,114.514 C52.777,113.626 52.855,112.989 52.809,112.603 C52.880,112.597 52.970,112.593 53.077,112.592 C53.184,112.591 53.390,112.611 53.695,112.651 C54.000,112.691 54.284,112.751 54.548,112.829 C54.811,112.908 55.092,113.043 55.391,113.236 C55.690,113.428 55.933,113.661 56.122,113.936 C56.310,114.210 56.435,114.577 56.496,115.038 C56.557,115.499 56.515,116.025 56.369,116.615 C56.355,116.703 56.306,116.934 56.221,117.308 C56.135,117.682 56.066,117.983 56.013,118.209 C57.335,116.238 58.616,115.443 59.855,115.823 C60.773,116.098 61.079,116.869 60.773,118.137 C60.429,119.543 59.543,120.934 58.118,122.311 ZM22.788,99.986 C22.954,99.939 23.134,99.860 23.327,99.747 C23.519,99.633 23.661,99.458 23.754,99.221 C23.846,98.983 23.793,98.740 23.593,98.492 C23.526,98.409 23.465,98.333 23.410,98.264 C23.354,98.194 23.231,98.119 23.039,98.035 C22.848,97.952 22.639,97.912 22.415,97.914 C22.190,97.916 21.874,97.982 21.468,98.111 C21.062,98.240 20.619,98.445 20.142,98.725 C20.895,99.803 21.777,100.223 22.788,99.986 ZM48.069,116.839 C48.187,116.711 48.300,116.549 48.407,116.350 C48.513,116.152 48.545,115.928 48.502,115.676 C48.459,115.424 48.289,115.245 47.991,115.137 C47.892,115.102 47.801,115.069 47.718,115.039 C47.635,115.010 47.491,115.010 47.285,115.040 C47.078,115.070 46.880,115.145 46.689,115.265 C46.497,115.386 46.262,115.608 45.981,115.933 C45.700,116.258 45.427,116.665 45.162,117.156 C46.358,117.680 47.327,117.575 48.069,116.839 ZM59.227,116.940 C59.182,116.771 59.074,116.663 58.904,116.617 C58.441,116.507 57.879,116.998 57.218,118.092 C56.558,119.185 56.012,120.311 55.582,121.469 L54.941,123.179 L54.919,123.148 L54.910,123.201 C56.197,122.596 57.333,121.471 58.321,119.826 C59.137,118.478 59.439,117.516 59.227,116.940 ZM28.002,86.818 C27.732,86.968 27.472,87.098 27.222,87.208 C26.971,87.318 26.677,87.400 26.340,87.455 C26.003,87.510 25.696,87.508 25.421,87.451 C25.145,87.394 24.879,87.247 24.622,87.010 C24.364,86.773 24.166,86.440 24.029,86.011 C23.513,84.478 23.126,83.417 22.870,82.829 C19.012,84.610 16.711,85.643 15.967,85.929 C15.866,85.962 15.760,86.007 15.650,86.063 C17.048,86.919 18.123,88.073 18.875,89.525 L18.887,89.549 C19.463,90.691 19.520,91.657 19.060,92.447 C18.599,93.236 17.824,93.753 16.734,93.998 C15.644,94.243 14.453,94.220 13.162,93.929 C10.045,93.224 7.702,91.316 6.135,88.206 L6.111,88.159 C5.864,87.706 5.871,87.212 6.133,86.676 C6.318,86.260 6.656,85.834 7.147,85.399 C7.514,85.069 7.943,84.746 8.435,84.431 C8.646,84.302 8.873,84.164 9.115,84.018 C9.381,83.841 9.658,83.666 9.947,83.497 C10.479,83.181 11.085,82.857 11.765,82.524 C13.032,81.867 14.343,81.257 15.697,80.695 C16.073,80.540 16.441,80.389 16.801,80.242 C17.419,79.982 18.073,79.712 18.762,79.435 C19.036,79.313 19.302,79.195 19.561,79.081 C20.774,78.552 21.814,78.102 22.683,77.732 C23.552,77.361 24.146,77.023 24.466,76.717 C24.513,76.773 24.573,76.852 24.645,76.955 C24.716,77.058 24.838,77.260 25.010,77.561 C25.181,77.863 25.513,78.531 26.005,79.567 C26.498,80.603 26.914,81.567 27.257,82.461 C27.598,83.354 27.902,84.192 28.169,84.975 C28.434,85.758 28.631,86.216 28.758,86.351 C28.703,86.399 28.631,86.451 28.542,86.508 C28.452,86.565 28.272,86.668 28.002,86.818 ZM13.737,86.966 C10.561,88.532 8.960,89.583 8.933,90.118 C9.044,90.220 9.210,90.354 9.432,90.520 C9.653,90.685 10.080,90.954 10.712,91.327 C11.344,91.700 11.961,91.995 12.564,92.213 C13.166,92.430 13.857,92.548 14.635,92.565 C15.413,92.582 16.119,92.416 16.752,92.067 C17.120,91.856 17.335,91.570 17.399,91.207 C17.462,90.843 17.394,90.463 17.194,90.066 C16.994,89.670 16.714,89.270 16.353,88.867 C15.991,88.463 15.580,88.097 15.117,87.766 C14.655,87.435 14.195,87.168 13.737,86.966 ZM23.400,51.358 C23.270,51.878 23.098,52.317 22.882,52.676 C22.666,53.034 22.313,53.308 21.823,53.499 C21.334,53.689 20.762,53.670 20.107,53.440 C16.827,52.309 15.138,51.725 15.037,51.688 C14.168,51.455 13.723,51.446 13.703,51.659 C13.672,51.835 13.905,52.176 14.403,52.685 C15.308,53.613 16.466,54.448 17.878,55.189 C19.289,55.929 20.478,56.444 21.444,56.731 L22.899,57.135 C22.892,57.170 22.882,57.227 22.868,57.306 C22.854,57.385 22.816,57.541 22.757,57.775 C22.697,58.008 22.627,58.222 22.548,58.416 C22.499,58.536 22.433,58.681 22.360,58.836 C22.378,58.960 22.397,59.110 22.420,59.304 C22.460,59.650 22.469,59.979 22.446,60.294 C22.422,60.608 22.344,60.957 22.211,61.341 C22.077,61.725 21.883,62.056 21.628,62.332 C21.373,62.608 21.006,62.838 20.525,63.022 C20.044,63.207 19.469,63.295 18.799,63.286 C14.571,63.250 10.948,63.308 7.930,63.458 C10.360,63.740 12.455,64.134 14.213,64.641 C15.972,65.147 17.291,65.656 18.170,66.169 C19.048,66.681 19.733,67.260 20.225,67.906 C20.716,68.551 21.006,69.081 21.095,69.495 C21.183,69.908 21.217,70.357 21.196,70.841 C21.199,70.876 21.193,70.935 21.181,71.016 C21.169,71.097 21.164,71.155 21.166,71.191 L21.170,71.244 C20.964,72.669 20.030,73.456 18.367,73.604 L18.288,73.609 L18.235,73.613 L18.209,73.615 L17.973,73.631 C9.658,73.835 5.333,74.341 4.999,75.150 C4.604,75.033 4.223,74.662 3.856,74.035 C3.489,73.407 3.272,72.837 3.203,72.324 C3.138,71.864 3.225,71.460 3.467,71.114 C3.708,70.766 4.086,70.491 4.601,70.287 C5.116,70.082 5.677,69.915 6.285,69.785 C6.892,69.654 7.631,69.569 8.499,69.528 C9.368,69.487 10.177,69.468 10.925,69.471 C11.674,69.474 12.533,69.487 13.503,69.512 C13.609,69.522 13.892,69.534 14.351,69.548 C14.809,69.561 15.166,69.569 15.422,69.570 C15.677,69.570 16.029,69.569 16.478,69.565 C16.926,69.562 17.290,69.541 17.570,69.505 C17.849,69.468 18.132,69.413 18.417,69.341 C18.703,69.268 18.912,69.164 19.044,69.030 C19.176,68.896 19.236,68.732 19.223,68.536 C19.156,67.790 18.600,67.162 17.554,66.653 C16.508,66.142 15.230,65.778 13.719,65.558 C12.208,65.339 10.700,65.173 9.197,65.060 C7.693,64.947 6.312,64.844 5.056,64.750 C3.800,64.656 3.026,64.539 2.736,64.398 C2.306,64.284 1.907,63.904 1.538,63.259 C1.171,62.615 0.961,62.035 0.909,61.521 C0.850,60.881 1.154,60.342 1.820,59.905 C2.487,59.467 3.378,59.157 4.493,58.974 C5.607,58.792 6.875,58.653 8.295,58.557 C9.714,58.461 11.152,58.431 12.607,58.467 C13.025,58.477 13.403,58.474 13.812,58.482 C6.971,55.453 3.230,54.168 2.615,54.639 C2.276,54.340 2.069,53.827 1.994,53.097 C1.920,52.368 1.963,51.755 2.123,51.260 C2.251,50.848 2.501,50.550 2.873,50.366 C3.246,50.180 3.721,50.096 4.298,50.113 C4.875,50.128 5.500,50.207 6.170,50.350 C6.841,50.492 7.601,50.713 8.448,51.015 C9.296,51.316 10.111,51.625 10.893,51.942 C11.676,52.259 12.538,52.631 13.479,53.058 C12.051,51.762 11.459,50.430 11.705,49.062 C11.906,48.139 12.408,47.535 13.209,47.248 C14.011,46.961 14.938,46.942 15.992,47.191 C17.045,47.440 18.087,47.755 19.117,48.135 C20.147,48.516 21.103,48.883 21.986,49.236 C22.869,49.589 23.419,49.759 23.636,49.744 C23.631,49.870 23.623,50.041 23.611,50.256 C23.599,50.471 23.529,50.839 23.400,51.358 ZM124.883,71.228 C124.613,71.190 124.303,71.161 123.951,71.141 C123.600,71.122 123.299,71.134 123.046,71.179 C123.019,71.105 122.985,71.007 122.944,70.885 C122.904,70.765 122.857,70.536 122.804,70.198 C122.751,69.861 122.731,69.541 122.745,69.238 C122.759,68.935 122.840,68.621 122.989,68.296 C123.138,67.972 123.364,67.709 123.667,67.509 C123.971,67.308 124.425,67.186 125.030,67.144 C125.635,67.101 126.352,67.169 127.182,67.348 C127.259,68.127 127.279,68.783 127.242,69.317 C127.203,69.850 127.113,70.248 126.971,70.511 C126.829,70.773 126.659,70.966 126.461,71.088 C126.263,71.210 126.018,71.273 125.726,71.278 C125.434,71.282 125.153,71.266 124.883,71.228 Z"/><path fill-rule="evenodd" fill="rgb(235, 65, 99)" d="M51.829,98.564 C51.829,98.564 54.339,98.797 56.913,99.032 C56.967,97.643 56.752,93.183 56.752,93.183 C56.752,93.183 58.033,97.527 58.772,99.235 C60.848,99.395 63.042,99.519 64.815,99.515 C69.641,99.506 78.386,98.526 78.386,98.526 C78.386,98.526 87.146,72.301 90.288,63.458 C89.734,63.050 88.864,62.588 87.835,62.129 C85.890,65.613 81.972,74.595 81.972,74.595 C81.972,74.595 84.609,63.246 84.979,61.007 C83.258,60.407 81.485,59.918 80.148,59.715 C78.677,65.539 73.590,82.987 73.590,82.987 C73.590,82.987 75.589,63.580 76.067,58.607 C70.261,58.024 59.594,58.042 54.858,58.453 C54.501,63.507 54.136,68.812 54.136,68.812 C54.136,68.812 52.548,63.079 51.436,59.206 C47.264,59.779 40.806,61.447 37.962,62.531 C40.709,70.269 51.829,98.564 51.829,98.564 Z"/><path fill-rule="evenodd" fill="rgb(255, 255, 255)" d="M94.176,66.201 C95.094,63.610 95.847,57.571 91.326,54.963 C93.532,51.737 91.701,47.753 88.490,47.195 C89.466,42.922 85.339,39.174 78.941,39.697 C82.791,36.719 92.347,38.551 92.643,45.187 C96.059,45.526 98.652,49.851 96.704,54.542 C98.790,56.897 97.806,62.900 94.176,66.201 ZM73.557,34.402 C70.128,30.927 62.480,31.820 60.821,34.321 C59.923,32.990 56.015,31.192 53.507,31.069 C55.491,28.483 62.905,22.925 68.567,28.167 C73.672,23.851 79.167,26.736 80.896,30.740 C84.287,29.426 88.893,32.810 88.644,37.585 C84.721,33.301 77.435,32.568 73.557,34.402 ZM59.925,39.463 C51.146,35.931 40.898,40.392 42.105,52.063 C37.643,53.601 34.320,59.178 35.659,65.942 C31.388,61.223 31.840,54.474 34.829,52.134 C32.386,46.104 34.447,39.185 43.099,39.697 C45.548,35.035 55.860,33.271 59.925,39.463 ZM59.145,48.299 C63.271,44.248 68.761,48.107 69.379,52.633 C67.616,50.366 61.938,48.902 59.165,52.705 C54.478,50.668 50.535,53.639 49.357,56.357 C48.025,49.093 55.024,44.377 59.145,48.299 ZM80.288,48.153 C86.950,45.867 89.195,52.132 86.749,56.703 C86.352,52.589 83.122,50.683 79.227,51.203 C77.496,47.285 73.563,46.737 70.144,47.269 C71.645,44.598 77.327,43.265 80.288,48.153 Z"/><path fill-rule="evenodd" fill="rgb(252, 255, 0)" d="M91.194,33.591 L98.151,28.668 L103.016,31.708 L92.001,35.013 L91.194,33.591 ZM81.741,24.659 L87.439,9.236 L91.874,13.596 L83.125,25.327 L81.741,24.659 ZM64.431,20.504 L62.305,0.578 L67.766,2.723 L66.252,20.622 L64.431,20.504 ZM43.310,16.748 L47.114,14.977 L50.418,24.890 L49.458,24.903 L43.310,16.748 ZM21.396,21.837 L29.077,20.209 L41.043,32.104 L40.009,33.112 L21.396,21.837 ZM31.593,40.962 L24.847,39.511 L23.290,35.858 L32.299,39.850 L31.593,40.962 ZM103.938,44.313 L98.844,44.589 L98.293,43.487 L106.003,41.284 L103.938,44.313 Z"/></svg>